<svg width="705" height="414" id="g467654" xmlns="http://www.w3.org/2000/svg" style="max-width: 704.6328125px;" viewBox="-7.5 -9 704.6328125 413.5" role="graphics-document document" aria-roledescription="flowchart-v2"><rect width="100%" height="100%" fill="#ffffff"/><style>#g467654{font-family:Segoe UI,Arial,sans-serif;font-size:16px;fill:#333;}#g467654 .error-icon{fill:#552222;}#g467654 .error-text{fill:#552222;stroke:#552222;}#g467654 .edge-thickness-normal{stroke-width:2px;}#g467654 .edge-thickness-thick{stroke-width:3.5px;}#g467654 .edge-pattern-solid{stroke-dasharray:0;}#g467654 .edge-pattern-dashed{stroke-dasharray:3;}#g467654 .edge-pattern-dotted{stroke-dasharray:2;}#g467654 .marker{fill:#333333;stroke:#333333;}#g467654 .marker.cross{stroke:#333333;}#g467654 svg{font-family:Segoe UI,Arial,sans-serif;font-size:16px;}#g467654 .label{font-family:Segoe UI,Arial,sans-serif;color:#333;}#g467654 .cluster-label text{fill:#333;}#g467654 .cluster-label span,#g467654 p{color:#333;}#g467654 .label text,#g467654 span,#g467654 p{fill:#333;color:#333;}#g467654 .node rect,#g467654 .node circle,#g467654 .node ellipse,#g467654 .node polygon,#g467654 .node path{fill:#ECECFF;stroke:#9370DB;stroke-width:1px;}#g467654 .flowchart-label text{text-anchor:middle;}#g467654 .node .katex path{fill:#000;stroke:#000;stroke-width:1px;}#g467654 .node .label{text-align:center;}#g467654 .node.clickable{cursor:pointer;}#g467654 .arrowheadPath{fill:#333333;}#g467654 .edgePath .path{stroke:#333333;stroke-width:2.0px;}#g467654 .flowchart-link{stroke:#333333;fill:none;}#g467654 .edgeLabel{background-color:#e8e8e8;text-align:center;}#g467654 .edgeLabel rect{opacity:0.5;background-color:#e8e8e8;fill:#e8e8e8;}#g467654 .labelBkg{background-color:rgba(232, 232, 232, 0.5);}#g467654 .cluster rect{fill:#ffffde;stroke:#aaaa33;stroke-width:1px;}#g467654 .cluster text{fill:#333;}#g467654 .cluster span,#g467654 p{color:#333;}#g467654 div.mermaidTooltip{position:absolute;text-align:center;max-width:200px;padding:2px;font-family:Segoe UI,Arial,sans-serif;font-size:12px;background:hsl(80, 100%, 96.2745098039%);border:1px solid #aaaa33;border-radius:2px;pointer-events:none;z-index:100;}#g467654 .flowchartTitleText{text-anchor:middle;font-size:18px;fill:#333;}#g467654 :root{--mermaid-font-family:"trebuchet ms",verdana,arial,sans-serif;}</style><g><marker id="g467654_flowchart-pointEnd" class="marker flowchart" viewBox="0 0 10 10" refX="6" refY="5" markerUnits="userSpaceOnUse" markerWidth="12" markerHeight="12" orient="auto"><path d="M 0 0 L 10 5 L 0 10 z" class="arrowMarkerPath" style="stroke-width: 1; stroke-dasharray: 1, 0;"></path></marker><marker id="g467654_flowchart-pointStart" class="marker flowchart" viewBox="0 0 10 10" refX="4.5" refY="5" markerUnits="userSpaceOnUse" markerWidth="12" markerHeight="12" orient="auto"><path d="M 0 5 L 10 10 L 10 0 z" class="arrowMarkerPath" style="stroke-width: 1; stroke-dasharray: 1, 0;"></path></marker><marker id="g467654_flowchart-circleEnd" class="marker flowchart" viewBox="0 0 10 10" refX="11" refY="5" markerUnits="userSpaceOnUse" markerWidth="11" markerHeight="11" orient="auto"><circle cx="5" cy="5" r="5" class="arrowMarkerPath" style="stroke-width: 1; stroke-dasharray: 1, 0;"></circle></marker><marker id="g467654_flowchart-circleStart" class="marker flowchart" viewBox="0 0 10 10" refX="-1" refY="5" markerUnits="userSpaceOnUse" markerWidth="11" markerHeight="11" orient="auto"><circle cx="5" cy="5" r="5" class="arrowMarkerPath" style="stroke-width: 1; stroke-dasharray: 1, 0;"></circle></marker><marker id="g467654_flowchart-crossEnd" class="marker cross flowchart" viewBox="0 0 11 11" refX="12" refY="5.2" markerUnits="userSpaceOnUse" markerWidth="11" markerHeight="11" orient="auto"><path d="M 1,1 l 9,9 M 10,1 l -9,9" class="arrowMarkerPath" style="stroke-width: 2; stroke-dasharray: 1, 0;"></path></marker><marker id="g467654_flowchart-crossStart" class="marker cross flowchart" viewBox="0 0 11 11" refX="-1" refY="5.2" markerUnits="userSpaceOnUse" markerWidth="11" markerHeight="11" orient="auto"><path d="M 1,1 l 9,9 M 10,1 l -9,9" class="arrowMarkerPath" style="stroke-width: 2; stroke-dasharray: 1, 0;"></path></marker><g class="root"><g class="clusters"></g><g class="edgePaths"><path d="M105.051,320.458L118.143,317.131C131.234,313.805,157.418,307.153,173.793,303.826C190.168,300.5,196.735,300.5,200.018,300.5L203.302,300.5" id="L-W-V-0" class=" edge-thickness-normal edge-pattern-solid flowchart-link LS-W LE-V" style="fill:none;" marker-end="url(#g467654_flowchart-pointEnd)"></path><path d="M263.078,283.252L269.856,278.96C276.634,274.668,290.19,266.084,309.176,261.792C328.162,257.5,352.577,257.5,364.785,257.5L376.993,257.5" id="L-V-DONE-0" class=" edge-thickness-normal edge-pattern-solid flowchart-link LS-V LE-DONE" style="fill:none;" marker-end="url(#g467654_flowchart-pointEnd)"></path><path d="M263.078,317.748L269.856,322.04C276.634,326.332,290.19,334.916,302.863,339.208C315.535,343.5,327.325,343.5,333.219,343.5L339.114,343.5" id="L-V-C-0" class=" edge-thickness-normal edge-pattern-solid flowchart-link LS-V LE-C" style="fill:none;" marker-end="url(#g467654_flowchart-pointEnd)"></path><path d="M481.867,343.5L486.034,343.5C490.201,343.5,498.534,343.5,507.385,344.698C516.236,345.896,525.604,348.291,530.289,349.489L534.973,350.687" id="L-C-R-0" class=" edge-thickness-normal edge-pattern-solid flowchart-link LS-C LE-R" style="fill:none;" marker-end="url(#g467654_flowchart-pointEnd)"></path><path d="M540.108,388L534.568,389.417C529.028,390.833,517.947,393.667,496.786,395.083C475.625,396.5,444.383,396.5,410.529,396.5C376.676,396.5,340.211,396.5,310.661,396.5C281.111,396.5,258.475,396.5,238.451,396.5C218.427,396.5,201.014,396.5,179.951,388.266C158.888,380.032,134.175,363.565,121.818,355.331L109.461,347.097" id="L-R-W-0" class=" edge-thickness-normal edge-pattern-solid flowchart-link LS-R LE-W" style="fill:none;" marker-end="url(#g467654_flowchart-pointEnd)"></path></g><g class="edgeLabels"><g class="edgeLabel"><g class="label" transform="translate(0, 0)"><rect rx="0" ry="0" width="0" height="0"></rect><text style=""><tspan xml:space="preserve" dy="1em" x="0" class="row"></tspan></text></g></g><g class="edgeLabel" transform="translate(303.74609375, 257.5)"><g class="label" transform="translate(-15.66796875, -10.5)"><rect rx="0" ry="0" width="31.32187843322754" height="21.00079345703125"></rect><text style=""><tspan xml:space="preserve" dy="1em" x="0" class="row">pass</tspan></text></g></g><g class="edgeLabel" transform="translate(303.74609375, 343.5)"><g class="label" transform="translate(-10.453125, -10.5)"><rect rx="0" ry="0" width="20.891414642333984" height="21.00079345703125"></rect><text style=""><tspan xml:space="preserve" dy="1em" x="0" class="row">fail</tspan></text></g></g><g class="edgeLabel"><g class="label" transform="translate(0, 0)"><rect rx="0" ry="0" width="0" height="0"></rect><text style=""><tspan xml:space="preserve" dy="1em" x="0" class="row"></tspan></text></g></g><g class="edgeLabel"><g class="label" transform="translate(0, 0)"><rect rx="0" ry="0" width="0" height="0"></rect><text style=""><tspan xml:space="preserve" dy="1em" x="0" class="row"></tspan></text></g></g></g><g class="nodes"><g class="root" transform="translate(-7.5, -8)"><g class="clusters"><g class="cluster default flowchart-label" id="TEAM"><rect style="" rx="0" ry="0" x="8" y="8" width="158.6015625" height="258"></rect><g class="cluster-label" transform="translate(87.30078125, 8)"><text style=""><tspan xml:space="preserve" dy="1em" x="0" class="row">Agent team</tspan></text></g></g></g><g class="edgePaths"><path d="M87.301,69L87.301,73.167C87.301,77.333,87.301,85.667,87.301,93.117C87.301,100.567,87.301,107.133,87.301,110.417L87.301,113.7" id="L-A1-A2-0" class=" edge-thickness-normal edge-pattern-solid flowchart-link LS-A1 LE-A2" style="fill:none;" marker-end="url(#g467654_flowchart-pointEnd)"></path><path d="M87.301,155L87.301,159.167C87.301,163.333,87.301,171.667,87.301,179.117C87.301,186.567,87.301,193.133,87.301,196.417L87.301,199.7" id="L-A2-A3-0" class=" edge-thickness-normal edge-pattern-solid flowchart-link LS-A2 LE-A3" style="fill:none;" marker-end="url(#g467654_flowchart-pointEnd)"></path></g><g class="edgeLabels"><g class="edgeLabel"><g class="label" transform="translate(0, 0)"><rect rx="0" ry="0" width="0" height="0"></rect><text style=""><tspan xml:space="preserve" dy="1em" x="0" class="row"></tspan></text></g></g><g class="edgeLabel"><g class="label" transform="translate(0, 0)"><rect rx="0" ry="0" width="0" height="0"></rect><text style=""><tspan xml:space="preserve" dy="1em" x="0" class="row"></tspan></text></g></g></g><g class="nodes"><g class="node default default flowchart-label" id="flowchart-A3-127" data-node="true" data-id="A3" transform="translate(87.30078125, 223)"><rect class="basic label-container" style="" rx="0" ry="0" x="-32.359375" y="-18" width="64.71875" height="36"></rect><g class="label" style="" transform="translate(0, -10.5)"><rect></rect><text style=""><tspan xml:space="preserve" dy="1em" x="0" class="row">verifier</tspan></text></g></g><g class="node default default flowchart-label" id="flowchart-A1-125" data-node="true" data-id="A1" transform="translate(87.30078125, 51)"><rect class="basic label-container" style="" rx="0" ry="0" x="-44.30078125" y="-18" width="88.6015625" height="36"></rect><g class="label" style="" transform="translate(0, -10.5)"><rect></rect><text style=""><tspan xml:space="preserve" dy="1em" x="0" class="row">researcher</tspan></text></g></g><g class="node default default flowchart-label" id="flowchart-A2-126" data-node="true" data-id="A2" transform="translate(87.30078125, 137)"><rect class="basic label-container" style="" rx="0" ry="0" x="-27.77734375" y="-18" width="55.5546875" height="36"></rect><g class="label" style="" transform="translate(0, -10.5)"><rect></rect><text style=""><tspan xml:space="preserve" dy="1em" x="0" class="row">coder</tspan></text></g></g></g></g><g class="node default default flowchart-label" id="flowchart-W-115" data-node="true" data-id="W" transform="translate(79.30078125, 327)"><rect class="basic label-container" style="" rx="0" ry="0" x="-25.75" y="-18" width="51.5" height="36"></rect><g class="label" style="" transform="translate(0, -10.5)"><rect></rect><text style=""><tspan xml:space="preserve" dy="1em" x="0" class="row">work</tspan></text></g></g><g class="node default default flowchart-label" id="flowchart-V-116" data-node="true" data-id="V" transform="translate(235.83984375, 300.5)"><rect class="basic label-container" style="" rx="0" ry="0" x="-27.23828125" y="-18" width="54.4765625" height="36"></rect><g class="label" style="" transform="translate(0, -10.5)"><rect></rect><text style=""><tspan xml:space="preserve" dy="1em" x="0" class="row">verify</tspan></text></g></g><g class="node default default flowchart-label" id="flowchart-DONE-118" data-node="true" data-id="DONE" transform="translate(413.140625, 257.5)"><rect class="basic label-container" style="" rx="0" ry="0" x="-30.84765625" y="-18" width="61.6953125" height="36"></rect><g class="label" style="" transform="translate(0, -10.5)"><rect></rect><text style=""><tspan xml:space="preserve" dy="1em" x="0" class="row">accept</tspan></text></g></g><g class="node default default flowchart-label" id="flowchart-C-120" data-node="true" data-id="C" transform="translate(413.140625, 343.5)"><rect class="basic label-container" style="" rx="0" ry="0" x="-68.7265625" y="-18" width="137.453125" height="36"></rect><g class="label" style="" transform="translate(0, -10.5)"><rect></rect><text style=""><tspan xml:space="preserve" dy="1em" x="0" class="row">critique feedback</tspan></text></g></g><g class="node default default flowchart-label" id="flowchart-R-122" data-node="true" data-id="R" transform="translate(610.5, 370)"><rect class="basic label-container" style="" rx="0" ry="0" x="-78.6328125" y="-18" width="157.265625" height="36"></rect><g class="label" style="" transform="translate(0, -10.5)"><rect></rect><text style=""><tspan xml:space="preserve" dy="1em" x="0" class="row">retry capped by role</tspan></text></g></g></g></g></g></svg>