<svg width="1312" height="1541" id="g271995425" xmlns="http://www.w3.org/2000/svg" style="max-width: 1311.650390625px;" viewBox="-7.5 -9 1311.650390625 1541" role="graphics-document document" aria-roledescription="flowchart-v2"><rect width="100%" height="100%" fill="#ffffff"/><style>#g271995425{font-family:Segoe UI,Arial,sans-serif;font-size:16px;fill:#333;}#g271995425 .error-icon{fill:#552222;}#g271995425 .error-text{fill:#552222;stroke:#552222;}#g271995425 .edge-thickness-normal{stroke-width:2px;}#g271995425 .edge-thickness-thick{stroke-width:3.5px;}#g271995425 .edge-pattern-solid{stroke-dasharray:0;}#g271995425 .edge-pattern-dashed{stroke-dasharray:3;}#g271995425 .edge-pattern-dotted{stroke-dasharray:2;}#g271995425 .marker{fill:#333333;stroke:#333333;}#g271995425 .marker.cross{stroke:#333333;}#g271995425 svg{font-family:Segoe UI,Arial,sans-serif;font-size:16px;}#g271995425 .label{font-family:Segoe UI,Arial,sans-serif;color:#333;}#g271995425 .cluster-label text{fill:#333;}#g271995425 .cluster-label span,#g271995425 p{color:#333;}#g271995425 .label text,#g271995425 span,#g271995425 p{fill:#333;color:#333;}#g271995425 .node rect,#g271995425 .node circle,#g271995425 .node ellipse,#g271995425 .node polygon,#g271995425 .node path{fill:#ECECFF;stroke:#9370DB;stroke-width:1px;}#g271995425 .flowchart-label text{text-anchor:middle;}#g271995425 .node .katex path{fill:#000;stroke:#000;stroke-width:1px;}#g271995425 .node .label{text-align:center;}#g271995425 .node.clickable{cursor:pointer;}#g271995425 .arrowheadPath{fill:#333333;}#g271995425 .edgePath .path{stroke:#333333;stroke-width:2.0px;}#g271995425 .flowchart-link{stroke:#333333;fill:none;}#g271995425 .edgeLabel{background-color:#e8e8e8;text-align:center;}#g271995425 .edgeLabel rect{opacity:0.5;background-color:#e8e8e8;fill:#e8e8e8;}#g271995425 .labelBkg{background-color:rgba(232, 232, 232, 0.5);}#g271995425 .cluster rect{fill:#ffffde;stroke:#aaaa33;stroke-width:1px;}#g271995425 .cluster text{fill:#333;}#g271995425 .cluster span,#g271995425 p{color:#333;}#g271995425 div.mermaidTooltip{position:absolute;text-align:center;max-width:200px;padding:2px;font-family:Segoe UI,Arial,sans-serif;font-size:12px;background:hsl(80, 100%, 96.2745098039%);border:1px solid #aaaa33;border-radius:2px;pointer-events:none;z-index:100;}#g271995425 .flowchartTitleText{text-anchor:middle;font-size:18px;fill:#333;}#g271995425 :root{--mermaid-font-family:"trebuchet ms",verdana,arial,sans-serif;}</style><g><marker id="g271995425_flowchart-pointEnd" class="marker flowchart" viewBox="0 0 10 10" refX="6" refY="5" markerUnits="userSpaceOnUse" markerWidth="12" markerHeight="12" orient="auto"><path d="M 0 0 L 10 5 L 0 10 z" class="arrowMarkerPath" style="stroke-width: 1; stroke-dasharray: 1, 0;"></path></marker><marker id="g271995425_flowchart-pointStart" class="marker flowchart" viewBox="0 0 10 10" refX="4.5" refY="5" markerUnits="userSpaceOnUse" markerWidth="12" markerHeight="12" orient="auto"><path d="M 0 5 L 10 10 L 10 0 z" class="arrowMarkerPath" style="stroke-width: 1; stroke-dasharray: 1, 0;"></path></marker><marker id="g271995425_flowchart-circleEnd" class="marker flowchart" viewBox="0 0 10 10" refX="11" refY="5" markerUnits="userSpaceOnUse" markerWidth="11" markerHeight="11" orient="auto"><circle cx="5" cy="5" r="5" class="arrowMarkerPath" style="stroke-width: 1; stroke-dasharray: 1, 0;"></circle></marker><marker id="g271995425_flowchart-circleStart" class="marker flowchart" viewBox="0 0 10 10" refX="-1" refY="5" markerUnits="userSpaceOnUse" markerWidth="11" markerHeight="11" orient="auto"><circle cx="5" cy="5" r="5" class="arrowMarkerPath" style="stroke-width: 1; stroke-dasharray: 1, 0;"></circle></marker><marker id="g271995425_flowchart-crossEnd" class="marker cross flowchart" viewBox="0 0 11 11" refX="12" refY="5.2" markerUnits="userSpaceOnUse" markerWidth="11" markerHeight="11" orient="auto"><path d="M 1,1 l 9,9 M 10,1 l -9,9" class="arrowMarkerPath" style="stroke-width: 2; stroke-dasharray: 1, 0;"></path></marker><marker id="g271995425_flowchart-crossStart" class="marker cross flowchart" viewBox="0 0 11 11" refX="-1" refY="5.2" markerUnits="userSpaceOnUse" markerWidth="11" markerHeight="11" orient="auto"><path d="M 1,1 l 9,9 M 10,1 l -9,9" class="arrowMarkerPath" style="stroke-width: 2; stroke-dasharray: 1, 0;"></path></marker><g class="root"><g class="clusters"><g class="cluster default flowchart-label" id="KERNEL"><rect style="" rx="0" ry="0" x="363.71875" y="329" width="548.947265625" height="1195"></rect><g class="cluster-label" transform="translate(638.1923828125, 329)"><text style=""><tspan xml:space="preserve" dy="1em" x="0" class="row">Executive kernel</tspan></text></g></g></g><g class="edgePaths"><path d="M627.357,390L611.38,394.167C595.403,398.333,563.449,406.667,547.471,418C531.494,429.333,531.494,443.667,531.494,458C531.494,472.333,531.494,486.667,531.494,528.417C531.494,570.167,531.494,639.333,531.494,708.5C531.494,777.667,531.494,846.833,531.494,923.167C531.494,999.5,531.494,1083,531.494,1168.25C531.494,1253.5,531.494,1340.5,531.12,1389.036C530.746,1437.572,529.998,1447.643,529.624,1452.679L529.249,1457.715" id="L-KER-BUS-0" class=" edge-thickness-normal edge-pattern-solid flowchart-link LS-KER LE-BUS" style="fill:none;" marker-end="url(#g271995425_flowchart-pointEnd)"></path><path d="M702.951,390L704.473,394.167C705.994,398.333,709.037,406.667,710.559,414.117C712.08,421.567,712.08,428.133,712.08,431.417L712.08,434.7" id="L-KER-ORCH-0" class=" edge-thickness-normal edge-pattern-solid flowchart-link LS-KER LE-ORCH" style="fill:none;" marker-end="url(#g271995425_flowchart-pointEnd)"></path><path d="M696.379,279L696.379,283.167C696.379,287.333,696.379,295.667,696.379,304C696.379,312.333,696.379,320.667,696.379,328.117C696.379,335.567,696.379,342.133,696.379,345.417L696.379,348.7" id="L-UX-KER-0" class=" edge-thickness-normal edge-pattern-solid flowchart-link LS-UX LE-KER" style="fill:none;" marker-end="url(#g271995425_flowchart-pointEnd)"></path><path d="M712.08,476L712.08,480.167C712.08,484.333,712.08,492.667,648.556,520.899C585.031,549.132,457.982,597.263,394.457,621.329L330.933,645.395" id="L-ORCH-COGNITION-0" class=" edge-thickness-normal edge-pattern-solid flowchart-link LS-ORCH LE-COGNITION" style="fill:none;" marker-end="url(#g271995425_flowchart-pointEnd)"></path><path d="M164.359,891L164.359,895.167C164.359,899.333,164.359,907.667,164.359,915.117C164.359,922.567,164.359,929.133,164.359,932.417L164.359,935.7" id="L-COGNITION-RUNTIMES-0" class=" edge-thickness-normal edge-pattern-solid flowchart-link LS-COGNITION LE-RUNTIMES" style="fill:none;" marker-end="url(#g271995425_flowchart-pointEnd)"></path><path d="M778.546,390L797.566,394.167C816.586,398.333,854.626,406.667,873.646,418C892.666,429.333,892.666,443.667,892.666,458C892.666,472.333,892.666,486.667,892.666,528.417C892.666,570.167,892.666,639.333,892.666,708.5C892.666,777.667,892.666,846.833,915.533,906.431C938.4,966.029,984.134,1016.059,1007.001,1041.073L1029.868,1066.088" id="L-KER-TRUST-0" class=" edge-thickness-normal edge-pattern-solid flowchart-link LS-KER LE-TRUST" style="fill:none;" marker-end="url(#g271995425_flowchart-pointEnd)"></path><path d="M325.977,811.942L353.073,829.285C380.17,846.628,434.363,881.314,461.46,940.407C488.557,999.5,488.557,1083,488.557,1168.25C488.557,1253.5,488.557,1340.5,492.346,1389.203C496.135,1437.905,503.712,1448.31,507.501,1453.513L511.29,1458.716" id="L-COGNITION-BUS-0" class=" edge-thickness-normal edge-pattern-dotted flowchart-link LS-COGNITION LE-BUS" style="fill:none;stroke-width:2px;stroke-dasharray:3;" marker-end="url(#g271995425_flowchart-pointEnd)"></path><path d="M328.719,1319.02L348.202,1337.1C367.686,1355.18,406.652,1391.34,434.454,1414.854C462.255,1438.367,478.891,1449.234,487.209,1454.668L495.527,1460.101" id="L-RUNTIMES-BUS-0" class=" edge-thickness-normal edge-pattern-dotted flowchart-link LS-RUNTIMES LE-BUS" style="fill:none;stroke-width:2px;stroke-dasharray:3;" marker-end="url(#g271995425_flowchart-pointEnd)"></path><path d="M973.921,1263L931.948,1290.417C889.974,1317.833,806.027,1372.667,743.389,1405.766C680.75,1438.865,639.42,1450.23,618.755,1455.912L598.089,1461.595" id="L-TRUST-BUS-0" class=" edge-thickness-normal edge-pattern-dotted flowchart-link LS-TRUST LE-BUS" style="fill:none;stroke-width:2px;stroke-dasharray:3;" marker-end="url(#g271995425_flowchart-pointEnd)"></path></g><g class="edgeLabels"><g class="edgeLabel"><g class="label" transform="translate(0, 0)"><rect rx="0" ry="0" width="0" height="0"></rect><text style=""><tspan xml:space="preserve" dy="1em" x="0" class="row"></tspan></text></g></g><g class="edgeLabel"><g class="label" transform="translate(0, 0)"><rect rx="0" ry="0" width="0" height="0"></rect><text style=""><tspan xml:space="preserve" dy="1em" x="0" class="row"></tspan></text></g></g><g class="edgeLabel"><g class="label" transform="translate(0, 0)"><rect rx="0" ry="0" width="0" height="0"></rect><text style=""><tspan xml:space="preserve" dy="1em" x="0" class="row"></tspan></text></g></g><g class="edgeLabel"><g class="label" transform="translate(0, 0)"><rect rx="0" ry="0" width="0" height="0"></rect><text style=""><tspan xml:space="preserve" dy="1em" x="0" class="row"></tspan></text></g></g><g class="edgeLabel"><g class="label" transform="translate(0, 0)"><rect rx="0" ry="0" width="0" height="0"></rect><text style=""><tspan xml:space="preserve" dy="1em" x="0" class="row"></tspan></text></g></g><g class="edgeLabel"><g class="label" transform="translate(0, 0)"><rect rx="0" ry="0" width="0" height="0"></rect><text style=""><tspan xml:space="preserve" dy="1em" x="0" class="row"></tspan></text></g></g><g class="edgeLabel" transform="translate(488.556640625, 1166.5)"><g class="label" transform="translate(-22.9375, -10.5)"><rect rx="0" ry="0" width="45.85114288330078" height="21.000213623046875"></rect><text style=""><tspan xml:space="preserve" dy="1em" x="0" class="row">events</tspan></text></g></g><g class="edgeLabel" transform="translate(445.619140625, 1427.5)"><g class="label" transform="translate(-22.9375, -10.5)"><rect rx="0" ry="0" width="45.85114288330078" height="21.000213623046875"></rect><text style=""><tspan xml:space="preserve" dy="1em" x="0" class="row">events</tspan></text></g></g><g class="edgeLabel" transform="translate(722.080078125, 1427.5)"><g class="label" transform="translate(-22.9375, -10.5)"><rect rx="0" ry="0" width="45.85114288330078" height="21.000213623046875"></rect><text style=""><tspan xml:space="preserve" dy="1em" x="0" class="row">events</tspan></text></g></g></g><g class="nodes"><g class="root" transform="translate(940.166015625, 1062)"><g class="clusters"><g class="cluster default flowchart-label" id="TRUST"><rect style="" rx="0" ry="0" x="8" y="8" width="347.984375" height="192"></rect><g class="cluster-label" transform="translate(181.9921875, 8)"><text style=""><tspan xml:space="preserve" dy="1em" x="0" class="row">Trust</tspan></text></g></g></g><g class="edgePaths"></g><g class="edgeLabels"></g><g class="nodes"><g class="node default default flowchart-label" id="flowchart-SEC-66" data-node="true" data-id="SEC" transform="translate(181.9921875, 61)"><rect class="basic label-container" style="" rx="0" ry="0" x="-135.26171875" y="-18" width="270.5234375" height="36"></rect><g class="label" style="" transform="translate(0, -10.5)"><rect></rect><text style=""><tspan xml:space="preserve" dy="1em" x="0" class="row">Security - tokens + approval + audit</tspan></text></g></g><g class="node default default flowchart-label" id="flowchart-OBS-67" data-node="true" data-id="OBS" transform="translate(181.9921875, 147)"><rect class="basic label-container" style="" rx="0" ry="0" x="-148.9921875" y="-18" width="297.984375" height="36"></rect><g class="label" style="" transform="translate(0, -10.5)"><rect></rect><text style=""><tspan xml:space="preserve" dy="1em" x="0" class="row">Observability - metrics + traces + replay</tspan></text></g></g></g></g><g class="root" transform="translate(-7.5, 933)"><g class="clusters"><g class="cluster default flowchart-label" id="RUNTIMES"><rect style="" rx="0" ry="0" x="8" y="8" width="328.71875" height="450"></rect><g class="cluster-label" transform="translate(172.359375, 8)"><text style=""><tspan xml:space="preserve" dy="1em" x="0" class="row">Runtimes</tspan></text></g></g></g><g class="edgePaths"></g><g class="edgeLabels"></g><g class="nodes"><g class="node default default flowchart-label" id="flowchart-TOOLS-61" data-node="true" data-id="TOOLS" transform="translate(172.359375, 61)"><rect class="basic label-container" style="" rx="0" ry="0" x="-88.01171875" y="-18" width="176.0234375" height="36"></rect><g class="label" style="" transform="translate(0, -10.5)"><rect></rect><text style=""><tspan xml:space="preserve" dy="1em" x="0" class="row">Tools + MCP - 30 tools</tspan></text></g></g><g class="node default default flowchart-label" id="flowchart-DESK-62" data-node="true" data-id="DESK" transform="translate(172.359375, 147)"><rect class="basic label-container" style="" rx="0" ry="0" x="-67.09765625" y="-18" width="134.1953125" height="36"></rect><g class="label" style="" transform="translate(0, -10.5)"><rect></rect><text style=""><tspan xml:space="preserve" dy="1em" x="0" class="row">Desktop - Win32</tspan></text></g></g><g class="node default default flowchart-label" id="flowchart-BROW-63" data-node="true" data-id="BROW" transform="translate(172.359375, 233)"><rect class="basic label-container" style="" rx="0" ry="0" x="-105.00390625" y="-18" width="210.0078125" height="36"></rect><g class="label" style="" transform="translate(0, -10.5)"><rect></rect><text style=""><tspan xml:space="preserve" dy="1em" x="0" class="row">Browser - Playwright + CDP</tspan></text></g></g><g class="node default default flowchart-label" id="flowchart-VIS-64" data-node="true" data-id="VIS" transform="translate(172.359375, 319)"><rect class="basic label-container" style="" rx="0" ry="0" x="-90.65625" y="-18" width="181.3125" height="36"></rect><g class="label" style="" transform="translate(0, -10.5)"><rect></rect><text style=""><tspan xml:space="preserve" dy="1em" x="0" class="row">Vision - OCR + YOLOv8</tspan></text></g></g><g class="node default default flowchart-label" id="flowchart-VOICE-65" data-node="true" data-id="VOICE" transform="translate(172.359375, 405)"><rect class="basic label-container" style="" rx="0" ry="0" x="-139.359375" y="-18" width="278.71875" height="36"></rect><g class="label" style="" transform="translate(0, -10.5)"><rect></rect><text style=""><tspan xml:space="preserve" dy="1em" x="0" class="row">Voice - Kokoro / IndicF5 / Chatterbox</tspan></text></g></g></g></g><g class="root" transform="translate(-4.7578125, 518)"><g class="clusters"><g class="cluster default flowchart-label" id="COGNITION"><rect style="" rx="0" ry="0" x="8" y="8" width="323.234375" height="364"></rect><g class="cluster-label" transform="translate(169.6171875, 8)"><text style=""><tspan xml:space="preserve" dy="1em" x="0" class="row">Cognition</tspan></text></g></g></g><g class="edgePaths"></g><g class="edgeLabels"></g><g class="nodes"><g class="node default default flowchart-label" id="flowchart-PROV-57" data-node="true" data-id="PROV" transform="translate(169.6171875, 61)"><rect class="basic label-container" style="" rx="0" ry="0" x="-136.6171875" y="-18" width="273.234375" height="36"></rect><g class="label" style="" transform="translate(0, -10.5)"><rect></rect><text style=""><tspan xml:space="preserve" dy="1em" x="0" class="row">Providers - NVIDIA NIM + RoutesMe</tspan></text></g></g><g class="node default default flowchart-label" id="flowchart-MIS-58" data-node="true" data-id="MIS" transform="translate(169.6171875, 147)"><rect class="basic label-container" style="" rx="0" ry="0" x="-84.1875" y="-18" width="168.375" height="36"></rect><g class="label" style="" transform="translate(0, -10.5)"><rect></rect><text style=""><tspan xml:space="preserve" dy="1em" x="0" class="row">Missions - LangGraph</tspan></text></g></g><g class="node default default flowchart-label" id="flowchart-AG-59" data-node="true" data-id="AG" transform="translate(169.6171875, 233)"><rect class="basic label-container" style="" rx="0" ry="0" x="-68.17578125" y="-18" width="136.3515625" height="36"></rect><g class="label" style="" transform="translate(0, -10.5)"><rect></rect><text style=""><tspan xml:space="preserve" dy="1em" x="0" class="row">Agents - 14 roles</tspan></text></g></g><g class="node default default flowchart-label" id="flowchart-MEM-60" data-node="true" data-id="MEM" transform="translate(169.6171875, 319)"><rect class="basic label-container" style="" rx="0" ry="0" x="-128.3984375" y="-18" width="256.796875" height="36"></rect><g class="label" style="" transform="translate(0, -10.5)"><rect></rect><text style=""><tspan xml:space="preserve" dy="1em" x="0" class="row">Memory - 16 kinds + world model</tspan></text></g></g></g></g><g class="node default default flowchart-label" id="flowchart-KER-54" data-node="true" data-id="KER" transform="translate(696.37890625, 372)"><rect class="basic label-container" style="" rx="0" ry="0" x="-119.0625" y="-18" width="238.125" height="36"></rect><g class="label" style="" transform="translate(0, -10.5)"><rect></rect><text style=""><tspan xml:space="preserve" dy="1em" x="0" class="row">Kernel - lifecycle FSM + registry</tspan></text></g></g><g class="node default default flowchart-label" id="flowchart-BUS-55" data-node="true" data-id="BUS" transform="translate(527.51953125, 1481)"><rect class="basic label-container" style="" rx="0" ry="0" x="-128.80078125" y="-18" width="257.6015625" height="36"></rect><g class="label" style="" transform="translate(0, -10.5)"><rect></rect><text style=""><tspan xml:space="preserve" dy="1em" x="0" class="row">Async event bus - 59 typed events</tspan></text></g></g><g class="node default default flowchart-label" id="flowchart-ORCH-56" data-node="true" data-id="ORCH" transform="translate(712.080078125, 458)"><rect class="basic label-container" style="" rx="0" ry="0" x="-145.5859375" y="-18" width="291.171875" height="36"></rect><g class="label" style="" transform="translate(0, -10.5)"><rect></rect><text style=""><tspan xml:space="preserve" dy="1em" x="0" class="row">Deep orchestration - 8-phase workflow</tspan></text></g></g><g class="root" transform="translate(555.37109375, -8)"><g class="clusters"><g class="cluster default flowchart-label" id="UX"><rect style="" rx="0" ry="0" x="8" y="8" width="267.015625" height="278"></rect><g class="cluster-label" transform="translate(141.5078125, 8)"><text style=""><tspan xml:space="preserve" dy="1em" x="0" class="row">Experience layer</tspan></text></g></g></g><g class="edgePaths"></g><g class="edgeLabels"></g><g class="nodes"><g class="node default default flowchart-label" id="flowchart-CLI-51" data-node="true" data-id="CLI" transform="translate(141.5078125, 61)"><rect class="basic label-container" style="" rx="0" ry="0" x="-96.73046875" y="-18" width="193.4609375" height="36"></rect><g class="label" style="" transform="translate(0, -10.5)"><rect></rect><text style=""><tspan xml:space="preserve" dy="1em" x="0" class="row">emily CLI - 72 commands</tspan></text></g></g><g class="node default default flowchart-label" id="flowchart-WB-52" data-node="true" data-id="WB" transform="translate(141.5078125, 147)"><rect class="basic label-container" style="" rx="0" ry="0" x="-108.5078125" y="-18" width="217.015625" height="36"></rect><g class="label" style="" transform="translate(0, -10.5)"><rect></rect><text style=""><tspan xml:space="preserve" dy="1em" x="0" class="row">Workbench UI - React + Vite</tspan></text></g></g><g class="node default default flowchart-label" id="flowchart-VOICEC-53" data-node="true" data-id="VOICEC" transform="translate(141.5078125, 233)"><rect class="basic label-container" style="" rx="0" ry="0" x="-102.4140625" y="-18" width="204.828125" height="36"></rect><g class="label" style="" transform="translate(0, -10.5)"><rect></rect><text style=""><tspan xml:space="preserve" dy="1em" x="0" class="row">Voice cockpit - legacy.html</tspan></text></g></g></g></g></g></g></g></svg>