<svg xmlns="http://www.w3.org/2000/svg" id="gd01" width="100%" xmlns="http://www.w3.org/2000/svg" style="max-width: 136px;" viewBox="-8 -8 136 40" role="graphics-document document" aria-roledescription="flowchart-v2"><rect width="100%" height="100%" fill="#ffffff"/><style>#gd01{font-family:"trebuchet ms",verdana,arial,sans-serif;font-size:16px;fill:#333;}#gd01 .error-icon{fill:#552222;}#gd01 .error-text{fill:#552222;stroke:#552222;}#gd01 .edge-thickness-normal{stroke-width:2px;}#gd01 .edge-thickness-thick{stroke-width:3.5px;}#gd01 .edge-pattern-solid{stroke-dasharray:0;}#gd01 .edge-pattern-dashed{stroke-dasharray:3;}#gd01 .edge-pattern-dotted{stroke-dasharray:2;}#gd01 .marker{fill:#333333;stroke:#333333;}#gd01 .marker.cross{stroke:#333333;}#gd01 svg{font-family:"trebuchet ms",verdana,arial,sans-serif;font-size:16px;}#gd01 .label{font-family:"trebuchet ms",verdana,arial,sans-serif;color:#333;}#gd01 .cluster-label text{fill:#333;}#gd01 .cluster-label span,#gd01 p{color:#333;}#gd01 .label text,#gd01 span,#gd01 p{fill:#333;color:#333;}#gd01 .node rect,#gd01 .node circle,#gd01 .node ellipse,#gd01 .node polygon,#gd01 .node path{fill:#ECECFF;stroke:#9370DB;stroke-width:1px;}#gd01 .flowchart-label text{text-anchor:middle;}#gd01 .node .katex path{fill:#000;stroke:#000;stroke-width:1px;}#gd01 .node .label{text-align:center;}#gd01 .node.clickable{cursor:pointer;}#gd01 .arrowheadPath{fill:#333333;}#gd01 .edgePath .path{stroke:#333333;stroke-width:2.0px;}#gd01 .flowchart-link{stroke:#333333;fill:none;}#gd01 .edgeLabel{background-color:#e8e8e8;text-align:center;}#gd01 .edgeLabel rect{opacity:0.5;background-color:#e8e8e8;fill:#e8e8e8;}#gd01 .labelBkg{background-color:rgba(232, 232, 232, 0.5);}#gd01 .cluster rect{fill:#ffffde;stroke:#aaaa33;stroke-width:1px;}#gd01 .cluster text{fill:#333;}#gd01 .cluster span,#gd01 p{color:#333;}#gd01 div.mermaidTooltip{position:absolute;text-align:center;max-width:200px;padding:2px;font-family:"trebuchet ms",verdana,arial,sans-serif;font-size:12px;background:hsl(80, 100%, 96.2745098039%);border:1px solid #aaaa33;border-radius:2px;pointer-events:none;z-index:100;}#gd01 .flowchartTitleText{text-anchor:middle;font-size:18px;fill:#333;}#gd01 :root{--mermaid-font-family:"trebuchet ms",verdana,arial,sans-serif;}</style><g><marker id="gd01_flowchart-pointEnd" class="marker flowchart" viewBox="0 0 10 10" refX="6" refY="5" markerUnits="userSpaceOnUse" markerWidth="12" markerHeight="12" orient="auto"><path d="M 0 0 L 10 5 L 0 10 z" class="arrowMarkerPath" style="stroke-width: 1; stroke-dasharray: 1,0;"></path></marker><marker id="gd01_flowchart-pointStart" class="marker flowchart" viewBox="0 0 10 10" refX="4.5" refY="5" markerUnits="userSpaceOnUse" markerWidth="12" markerHeight="12" orient="auto"><path d="M 0 5 L 10 10 L 10 0 z" class="arrowMarkerPath" style="stroke-width: 1; stroke-dasharray: 1,0;"></path></marker><marker id="gd01_flowchart-circleEnd" class="marker flowchart" viewBox="0 0 10 10" refX="11" refY="5" markerUnits="userSpaceOnUse" markerWidth="11" markerHeight="11" orient="auto"><circle cx="5" cy="5" r="5" class="arrowMarkerPath" style="stroke-width: 1; stroke-dasharray: 1,0;"></circle></marker><marker id="gd01_flowchart-circleStart" class="marker flowchart" viewBox="0 0 10 10" refX="-1" refY="5" markerUnits="userSpaceOnUse" markerWidth="11" markerHeight="11" orient="auto"><circle cx="5" cy="5" r="5" class="arrowMarkerPath" style="stroke-width: 1; stroke-dasharray: 1,0;"></circle></marker><marker id="gd01_flowchart-crossEnd" class="marker cross flowchart" viewBox="0 0 11 11" refX="12" refY="5.2" markerUnits="userSpaceOnUse" markerWidth="11" markerHeight="11" orient="auto"><path d="M 1,1 l 9,9 M 10,1 l -9,9" class="arrowMarkerPath" style="stroke-width: 2; stroke-dasharray: 1,0;"></path></marker><marker id="gd01_flowchart-crossStart" class="marker cross flowchart" viewBox="0 0 11 11" refX="-1" refY="5.2" markerUnits="userSpaceOnUse" markerWidth="11" markerHeight="11" orient="auto"><path d="M 1,1 l 9,9 M 10,1 l -9,9" class="arrowMarkerPath" style="stroke-width: 2; stroke-dasharray: 1,0;"></path></marker><g class="root"><g class="clusters"></g><g class="edgePaths"><path d="M1700,14.035L1469.167,21.862C1238.333,29.69,776.667,45.345,545.833,58.456C315,71.567,315,82.133,315,87.417L315,92.7" id="L-ROOT-A-0" class=" edge-thickness-normal edge-pattern-solid flowchart-link LS-ROOT LE-A" style="fill:none;" marker-end="url(#gd01_flowchart-pointEnd)"></path><path d="M1700,15.843L1582.5,23.369C1465,30.895,1230,45.948,1112.5,58.757C995,71.567,995,82.133,995,87.417L995,92.7" id="L-ROOT-B-0" class=" edge-thickness-normal edge-pattern-solid flowchart-link LS-ROOT LE-B" style="fill:none;" marker-end="url(#gd01_flowchart-pointEnd)"></path><path d="M1760,24L1760,30.167C1760,36.333,1760,48.667,1760,60.117C1760,71.567,1760,82.133,1760,87.417L1760,92.7" id="L-ROOT-C-0" class=" edge-thickness-normal edge-pattern-solid flowchart-link LS-ROOT LE-C" style="fill:none;" marker-end="url(#gd01_flowchart-pointEnd)"></path><path d="M1820,15.843L1937.5,23.369C2055,30.895,2290,45.948,2407.5,58.757C2525,71.567,2525,82.133,2525,87.417L2525,92.7" id="L-ROOT-D-0" class=" edge-thickness-normal edge-pattern-solid flowchart-link LS-ROOT LE-D" style="fill:none;" marker-end="url(#gd01_flowchart-pointEnd)"></path><path d="M1820,14.162L2036.667,21.968C2253.333,29.775,2686.667,45.387,2903.333,58.477C3120,71.567,3120,82.133,3120,87.417L3120,92.7" id="L-ROOT-E-0" class=" edge-thickness-normal edge-pattern-solid flowchart-link LS-ROOT LE-E" style="fill:none;" marker-end="url(#gd01_flowchart-pointEnd)"></path><path d="M255,121.529L222.5,127.775C190,134.02,125,146.51,92.5,158.038C60,169.567,60,180.133,60,185.417L60,190.7" id="L-A-A1-0" class=" edge-thickness-normal edge-pattern-solid flowchart-link LS-A LE-A1" style="fill:none;" marker-end="url(#gd01_flowchart-pointEnd)"></path><path d="M294.184,122L283.486,128.167C272.789,134.333,251.395,146.667,240.697,158.117C230,169.567,230,180.133,230,185.417L230,190.7" id="L-A-A2-0" class=" edge-thickness-normal edge-pattern-solid flowchart-link LS-A LE-A2" style="fill:none;" marker-end="url(#gd01_flowchart-pointEnd)"></path><path d="M335.816,122L346.514,128.167C357.211,134.333,378.605,146.667,389.303,158.117C400,169.567,400,180.133,400,185.417L400,190.7" id="L-A-A3-0" class=" edge-thickness-normal edge-pattern-solid flowchart-link LS-A LE-A3" style="fill:none;" marker-end="url(#gd01_flowchart-pointEnd)"></path><path d="M375,121.529L407.5,127.775C440,134.02,505,146.51,537.5,158.038C570,169.567,570,180.133,570,185.417L570,190.7" id="L-A-A4-0" class=" edge-thickness-normal edge-pattern-solid flowchart-link LS-A LE-A4" style="fill:none;" marker-end="url(#gd01_flowchart-pointEnd)"></path><path d="M935,121.529L902.5,127.775C870,134.02,805,146.51,772.5,158.038C740,169.567,740,180.133,740,185.417L740,190.7" id="L-B-B1-0" class=" edge-thickness-normal edge-pattern-solid flowchart-link LS-B LE-B1" style="fill:none;" marker-end="url(#gd01_flowchart-pointEnd)"></path><path d="M974.184,122L963.486,128.167C952.789,134.333,931.395,146.667,920.697,158.117C910,169.567,910,180.133,910,185.417L910,190.7" id="L-B-B2-0" class=" edge-thickness-normal edge-pattern-solid flowchart-link LS-B LE-B2" style="fill:none;" marker-end="url(#gd01_flowchart-pointEnd)"></path><path d="M1015.816,122L1026.514,128.167C1037.211,134.333,1058.605,146.667,1069.303,158.117C1080,169.567,1080,180.133,1080,185.417L1080,190.7" id="L-B-B3-0" class=" edge-thickness-normal edge-pattern-solid flowchart-link LS-B LE-B3" style="fill:none;" marker-end="url(#gd01_flowchart-pointEnd)"></path><path d="M1055,121.529L1087.5,127.775C1120,134.02,1185,146.51,1217.5,158.038C1250,169.567,1250,180.133,1250,185.417L1250,190.7" id="L-B-B4-0" class=" edge-thickness-normal edge-pattern-solid flowchart-link LS-B LE-B4" style="fill:none;" marker-end="url(#gd01_flowchart-pointEnd)"></path><path d="M1700,118.647L1653.333,125.373C1606.667,132.098,1513.333,145.549,1466.667,157.558C1420,169.567,1420,180.133,1420,185.417L1420,190.7" id="L-C-C1-0" class=" edge-thickness-normal edge-pattern-solid flowchart-link LS-C LE-C1" style="fill:none;" marker-end="url(#gd01_flowchart-pointEnd)"></path><path d="M1718.367,122L1696.973,128.167C1675.578,134.333,1632.789,146.667,1611.395,158.117C1590,169.567,1590,180.133,1590,185.417L1590,190.7" id="L-C-C2-0" class=" edge-thickness-normal edge-pattern-solid flowchart-link LS-C LE-C2" style="fill:none;" marker-end="url(#gd01_flowchart-pointEnd)"></path><path d="M1760,122L1760,128.167C1760,134.333,1760,146.667,1760,158.117C1760,169.567,1760,180.133,1760,185.417L1760,190.7" id="L-C-C3-0" class=" edge-thickness-normal edge-pattern-solid flowchart-link LS-C LE-C3" style="fill:none;" marker-end="url(#gd01_flowchart-pointEnd)"></path><path d="M1801.633,122L1823.027,128.167C1844.422,134.333,1887.211,146.667,1908.605,158.117C1930,169.567,1930,180.133,1930,185.417L1930,190.7" id="L-C-C4-0" class=" edge-thickness-normal edge-pattern-solid flowchart-link LS-C LE-C4" style="fill:none;" marker-end="url(#gd01_flowchart-pointEnd)"></path><path d="M1820,118.647L1866.667,125.373C1913.333,132.098,2006.667,145.549,2053.333,157.558C2100,169.567,2100,180.133,2100,185.417L2100,190.7" id="L-C-C5-0" class=" edge-thickness-normal edge-pattern-solid flowchart-link LS-C LE-C5" style="fill:none;" marker-end="url(#gd01_flowchart-pointEnd)"></path><path d="M2465,121.529L2432.5,127.775C2400,134.02,2335,146.51,2302.5,158.038C2270,169.567,2270,180.133,2270,185.417L2270,190.7" id="L-D-D1-0" class=" edge-thickness-normal edge-pattern-solid flowchart-link LS-D LE-D1" style="fill:none;" marker-end="url(#gd01_flowchart-pointEnd)"></path><path d="M2504.184,122L2493.486,128.167C2482.789,134.333,2461.395,146.667,2450.697,158.117C2440,169.567,2440,180.133,2440,185.417L2440,190.7" id="L-D-D2-0" class=" edge-thickness-normal edge-pattern-solid flowchart-link LS-D LE-D2" style="fill:none;" marker-end="url(#gd01_flowchart-pointEnd)"></path><path d="M2545.816,122L2556.514,128.167C2567.211,134.333,2588.605,146.667,2599.303,158.117C2610,169.567,2610,180.133,2610,185.417L2610,190.7" id="L-D-D3-0" class=" edge-thickness-normal edge-pattern-solid flowchart-link LS-D LE-D3" style="fill:none;" marker-end="url(#gd01_flowchart-pointEnd)"></path><path d="M2585,121.529L2617.5,127.775C2650,134.02,2715,146.51,2747.5,158.038C2780,169.567,2780,180.133,2780,185.417L2780,190.7" id="L-D-D4-0" class=" edge-thickness-normal edge-pattern-solid flowchart-link LS-D LE-D4" style="fill:none;" marker-end="url(#gd01_flowchart-pointEnd)"></path><path d="M3078.367,122L3056.973,128.167C3035.578,134.333,2992.789,146.667,2971.395,158.117C2950,169.567,2950,180.133,2950,185.417L2950,190.7" id="L-E-E1-0" class=" edge-thickness-normal edge-pattern-solid flowchart-link LS-E LE-E1" style="fill:none;" marker-end="url(#gd01_flowchart-pointEnd)"></path><path d="M3120,122L3120,128.167C3120,134.333,3120,146.667,3120,158.117C3120,169.567,3120,180.133,3120,185.417L3120,190.7" id="L-E-E2-0" class=" edge-thickness-normal edge-pattern-solid flowchart-link LS-E LE-E2" style="fill:none;" marker-end="url(#gd01_flowchart-pointEnd)"></path><path d="M3161.633,122L3183.027,128.167C3204.422,134.333,3247.211,146.667,3268.605,158.117C3290,169.567,3290,180.133,3290,185.417L3290,190.7" id="L-E-E3-0" class=" edge-thickness-normal edge-pattern-solid flowchart-link LS-E LE-E3" style="fill:none;" marker-end="url(#gd01_flowchart-pointEnd)"></path></g><g class="edgeLabels"><g class="edgeLabel"><g class="label" transform="translate(-60, -12)"><rect rx="0" ry="0" width="120" height="24"></rect><text style=""><tspan xml:space="preserve" dy="1em" x="0" class="row"></tspan></text></g></g><g class="edgeLabel"><g class="label" transform="translate(-60, -12)"><rect rx="0" ry="0" width="120" height="24"></rect><text style=""><tspan xml:space="preserve" dy="1em" x="0" class="row"></tspan></text></g></g><g class="edgeLabel"><g class="label" transform="translate(-60, -12)"><rect rx="0" ry="0" width="120" height="24"></rect><text style=""><tspan xml:space="preserve" dy="1em" x="0" class="row"></tspan></text></g></g><g class="edgeLabel"><g class="label" transform="translate(-60, -12)"><rect rx="0" ry="0" width="120" height="24"></rect><text style=""><tspan xml:space="preserve" dy="1em" x="0" class="row"></tspan></text></g></g><g class="edgeLabel"><g class="label" transform="translate(-60, -12)"><rect rx="0" ry="0" width="120" height="24"></rect><text style=""><tspan xml:space="preserve" dy="1em" x="0" class="row"></tspan></text></g></g><g class="edgeLabel"><g class="label" transform="translate(-60, -12)"><rect rx="0" ry="0" width="120" height="24"></rect><text style=""><tspan xml:space="preserve" dy="1em" x="0" class="row"></tspan></text></g></g><g class="edgeLabel"><g class="label" transform="translate(-60, -12)"><rect rx="0" ry="0" width="120" height="24"></rect><text style=""><tspan xml:space="preserve" dy="1em" x="0" class="row"></tspan></text></g></g><g class="edgeLabel"><g class="label" transform="translate(-60, -12)"><rect rx="0" ry="0" width="120" height="24"></rect><text style=""><tspan xml:space="preserve" dy="1em" x="0" class="row"></tspan></text></g></g><g class="edgeLabel"><g class="label" transform="translate(-60, -12)"><rect rx="0" ry="0" width="120" height="24"></rect><text style=""><tspan xml:space="preserve" dy="1em" x="0" class="row"></tspan></text></g></g><g class="edgeLabel"><g class="label" transform="translate(-60, -12)"><rect rx="0" ry="0" width="120" height="24"></rect><text style=""><tspan xml:space="preserve" dy="1em" x="0" class="row"></tspan></text></g></g><g class="edgeLabel"><g class="label" transform="translate(-60, -12)"><rect rx="0" ry="0" width="120" height="24"></rect><text style=""><tspan xml:space="preserve" dy="1em" x="0" class="row"></tspan></text></g></g><g class="edgeLabel"><g class="label" transform="translate(-60, -12)"><rect rx="0" ry="0" width="120" height="24"></rect><text style=""><tspan xml:space="preserve" dy="1em" x="0" class="row"></tspan></text></g></g><g class="edgeLabel"><g class="label" transform="translate(-60, -12)"><rect rx="0" ry="0" width="120" height="24"></rect><text style=""><tspan xml:space="preserve" dy="1em" x="0" class="row"></tspan></text></g></g><g class="edgeLabel"><g class="label" transform="translate(-60, -12)"><rect rx="0" ry="0" width="120" height="24"></rect><text style=""><tspan xml:space="preserve" dy="1em" x="0" class="row"></tspan></text></g></g><g class="edgeLabel"><g class="label" transform="translate(-60, -12)"><rect rx="0" ry="0" width="120" height="24"></rect><text style=""><tspan xml:space="preserve" dy="1em" x="0" class="row"></tspan></text></g></g><g class="edgeLabel"><g class="label" transform="translate(-60, -12)"><rect rx="0" ry="0" width="120" height="24"></rect><text style=""><tspan xml:space="preserve" dy="1em" x="0" class="row"></tspan></text></g></g><g class="edgeLabel"><g class="label" transform="translate(-60, -12)"><rect rx="0" ry="0" width="120" height="24"></rect><text style=""><tspan xml:space="preserve" dy="1em" x="0" class="row"></tspan></text></g></g><g class="edgeLabel"><g class="label" transform="translate(-60, -12)"><rect rx="0" ry="0" width="120" height="24"></rect><text style=""><tspan xml:space="preserve" dy="1em" x="0" class="row"></tspan></text></g></g><g class="edgeLabel"><g class="label" transform="translate(-60, -12)"><rect rx="0" ry="0" width="120" height="24"></rect><text style=""><tspan xml:space="preserve" dy="1em" x="0" class="row"></tspan></text></g></g><g class="edgeLabel"><g class="label" transform="translate(-60, -12)"><rect rx="0" ry="0" width="120" height="24"></rect><text style=""><tspan xml:space="preserve" dy="1em" x="0" class="row"></tspan></text></g></g><g class="edgeLabel"><g class="label" transform="translate(-60, -12)"><rect rx="0" ry="0" width="120" height="24"></rect><text style=""><tspan xml:space="preserve" dy="1em" x="0" class="row"></tspan></text></g></g><g class="edgeLabel"><g class="label" transform="translate(-60, -12)"><rect rx="0" ry="0" width="120" height="24"></rect><text style=""><tspan xml:space="preserve" dy="1em" x="0" class="row"></tspan></text></g></g><g class="edgeLabel"><g class="label" transform="translate(-60, -12)"><rect rx="0" ry="0" width="120" height="24"></rect><text style=""><tspan xml:space="preserve" dy="1em" x="0" class="row"></tspan></text></g></g><g class="edgeLabel"><g class="label" transform="translate(-60, -12)"><rect rx="0" ry="0" width="120" height="24"></rect><text style=""><tspan xml:space="preserve" dy="1em" x="0" class="row"></tspan></text></g></g><g class="edgeLabel"><g class="label" transform="translate(-60, -12)"><rect rx="0" ry="0" width="120" height="24"></rect><text style=""><tspan xml:space="preserve" dy="1em" x="0" class="row"></tspan></text></g></g></g><g class="nodes"><g class="node default default flowchart-label" id="flowchart-ROOT-0" data-node="true" data-id="ROOT" transform="translate(1760, 12)"><rect style="" rx="19.5" ry="19.5" x="-72.375" y="-19.5" width="144.75" height="39"></rect><g class="label" style="" transform="translate(0, -12)"><rect></rect><text style=""><tspan xml:space="preserve" dy="1em" x="0" class="row">Emily OS</tspan></text></g></g><g class="node default default flowchart-label" id="flowchart-A-2" data-node="true" data-id="A" transform="translate(315, 110)"><rect class="basic label-container" style="" rx="0" ry="0" x="-67.5" y="-19.5" width="135" height="39"></rect><g class="label" style="" transform="translate(0, -12)"><rect></rect><text style=""><tspan xml:space="preserve" dy="1em" x="0" class="row">Executive Kernel</tspan></text></g></g><g class="node default default flowchart-label" id="flowchart-B-4" data-node="true" data-id="B" transform="translate(995, 110)"><rect class="basic label-container" style="" rx="0" ry="0" x="-67.5" y="-19.5" width="135" height="39"></rect><g class="label" style="" transform="translate(0, -12)"><rect></rect><text style=""><tspan xml:space="preserve" dy="1em" x="0" class="row">Cognition</tspan></text></g></g><g class="node default default flowchart-label" id="flowchart-C-6" data-node="true" data-id="C" transform="translate(1760, 110)"><rect class="basic label-container" style="" rx="0" ry="0" x="-67.5" y="-19.5" width="135" height="39"></rect><g class="label" style="" transform="translate(0, -12)"><rect></rect><text style=""><tspan xml:space="preserve" dy="1em" x="0" class="row">Runtimes</tspan></text></g></g><g class="node default default flowchart-label" id="flowchart-D-8" data-node="true" data-id="D" transform="translate(2525, 110)"><rect class="basic label-container" style="" rx="0" ry="0" x="-67.5" y="-19.5" width="135" height="39"></rect><g class="label" style="" transform="translate(0, -12)"><rect></rect><text style=""><tspan xml:space="preserve" dy="1em" x="0" class="row">Trust</tspan></text></g></g><g class="node default default flowchart-label" id="flowchart-E-10" data-node="true" data-id="E" transform="translate(3120, 110)"><rect class="basic label-container" style="" rx="0" ry="0" x="-67.5" y="-19.5" width="135" height="39"></rect><g class="label" style="" transform="translate(0, -12)"><rect></rect><text style=""><tspan xml:space="preserve" dy="1em" x="0" class="row">Surface</tspan></text></g></g><g class="node default default flowchart-label" id="flowchart-A1-12" data-node="true" data-id="A1" transform="translate(60, 208)"><rect class="basic label-container" style="" rx="0" ry="0" x="-67.5" y="-19.5" width="135" height="39"></rect><g class="label" style="" transform="translate(0, -12)"><rect></rect><text style=""><tspan xml:space="preserve" dy="1em" x="0" class="row">lifecycle FSM</tspan></text></g></g><g class="node default default flowchart-label" id="flowchart-A2-14" data-node="true" data-id="A2" transform="translate(230, 208)"><rect class="basic label-container" style="" rx="0" ry="0" x="-67.5" y="-19.5" width="135" height="39"></rect><g class="label" style="" transform="translate(0, -12)"><rect></rect><text style=""><tspan xml:space="preserve" dy="1em" x="0" class="row">subsystem registry</tspan></text></g></g><g class="node default default flowchart-label" id="flowchart-A3-16" data-node="true" data-id="A3" transform="translate(400, 208)"><rect class="basic label-container" style="" rx="0" ry="0" x="-67.5" y="-19.5" width="135" height="39"></rect><g class="label" style="" transform="translate(0, -12)"><rect></rect><text style=""><tspan xml:space="preserve" dy="1em" x="0" class="row">8-phase orchestration</tspan></text></g></g><g class="node default default flowchart-label" id="flowchart-A4-18" data-node="true" data-id="A4" transform="translate(570, 208)"><rect class="basic label-container" style="" rx="0" ry="0" x="-67.5" y="-19.5" width="135" height="39"></rect><g class="label" style="" transform="translate(0, -12)"><rect></rect><text style=""><tspan xml:space="preserve" dy="1em" x="0" class="row">typed event bus</tspan></text></g></g><g class="node default default flowchart-label" id="flowchart-B1-20" data-node="true" data-id="B1" transform="translate(740, 208)"><rect class="basic label-container" style="" rx="0" ry="0" x="-67.5" y="-19.5" width="135" height="39"></rect><g class="label" style="" transform="translate(0, -12)"><rect></rect><text style=""><tspan xml:space="preserve" dy="1em" x="0" class="row">Provider fabric</tspan></text></g></g><g class="node default default flowchart-label" id="flowchart-B2-22" data-node="true" data-id="B2" transform="translate(910, 208)"><rect class="basic label-container" style="" rx="0" ry="0" x="-67.5" y="-19.5" width="135" height="39"></rect><g class="label" style="" transform="translate(0, -12)"><rect></rect><text style=""><tspan xml:space="preserve" dy="1em" x="0" class="row">LangGraph missions</tspan></text></g></g><g class="node default default flowchart-label" id="flowchart-B3-24" data-node="true" data-id="B3" transform="translate(1080, 208)"><rect class="basic label-container" style="" rx="0" ry="0" x="-67.5" y="-19.5" width="135" height="39"></rect><g class="label" style="" transform="translate(0, -12)"><rect></rect><text style=""><tspan xml:space="preserve" dy="1em" x="0" class="row">Multi-agent supervisor</tspan></text></g></g><g class="node default default flowchart-label" id="flowchart-B4-26" data-node="true" data-id="B4" transform="translate(1250, 208)"><rect class="basic label-container" style="" rx="0" ry="0" x="-67.5" y="-19.5" width="135" height="39"></rect><g class="label" style="" transform="translate(0, -12)"><rect></rect><text style=""><tspan xml:space="preserve" dy="1em" x="0" class="row">Memory + world model</tspan></text></g></g><g class="node default default flowchart-label" id="flowchart-C1-28" data-node="true" data-id="C1" transform="translate(1420, 208)"><rect class="basic label-container" style="" rx="0" ry="0" x="-67.5" y="-19.5" width="135" height="39"></rect><g class="label" style="" transform="translate(0, -12)"><rect></rect><text style=""><tspan xml:space="preserve" dy="1em" x="0" class="row">Tools + MCP</tspan></text></g></g><g class="node default default flowchart-label" id="flowchart-C2-30" data-node="true" data-id="C2" transform="translate(1590, 208)"><rect class="basic label-container" style="" rx="0" ry="0" x="-67.5" y="-19.5" width="135" height="39"></rect><g class="label" style="" transform="translate(0, -12)"><rect></rect><text style=""><tspan xml:space="preserve" dy="1em" x="0" class="row">Desktop Win32</tspan></text></g></g><g class="node default default flowchart-label" id="flowchart-C3-32" data-node="true" data-id="C3" transform="translate(1760, 208)"><rect class="basic label-container" style="" rx="0" ry="0" x="-67.5" y="-19.5" width="135" height="39"></rect><g class="label" style="" transform="translate(0, -12)"><rect></rect><text style=""><tspan xml:space="preserve" dy="1em" x="0" class="row">Browser Playwright</tspan></text></g></g><g class="node default default flowchart-label" id="flowchart-C4-34" data-node="true" data-id="C4" transform="translate(1930, 208)"><rect class="basic label-container" style="" rx="0" ry="0" x="-67.5" y="-19.5" width="135" height="39"></rect><g class="label" style="" transform="translate(0, -12)"><rect></rect><text style=""><tspan xml:space="preserve" dy="1em" x="0" class="row">Vision OCR + YOLO</tspan></text></g></g><g class="node default default flowchart-label" id="flowchart-C5-36" data-node="true" data-id="C5" transform="translate(2100, 208)"><rect class="basic label-container" style="" rx="0" ry="0" x="-67.5" y="-19.5" width="135" height="39"></rect><g class="label" style="" transform="translate(0, -12)"><rect></rect><text style=""><tspan xml:space="preserve" dy="1em" x="0" class="row">Voice 23 languages</tspan></text></g></g><g class="node default default flowchart-label" id="flowchart-D1-38" data-node="true" data-id="D1" transform="translate(2270, 208)"><rect class="basic label-container" style="" rx="0" ry="0" x="-67.5" y="-19.5" width="135" height="39"></rect><g class="label" style="" transform="translate(0, -12)"><rect></rect><text style=""><tspan xml:space="preserve" dy="1em" x="0" class="row">Capability tokens</tspan></text></g></g><g class="node default default flowchart-label" id="flowchart-D2-40" data-node="true" data-id="D2" transform="translate(2440, 208)"><rect class="basic label-container" style="" rx="0" ry="0" x="-67.5" y="-19.5" width="135" height="39"></rect><g class="label" style="" transform="translate(0, -12)"><rect></rect><text style=""><tspan xml:space="preserve" dy="1em" x="0" class="row">Approval gates</tspan></text></g></g><g class="node default default flowchart-label" id="flowchart-D3-42" data-node="true" data-id="D3" transform="translate(2610, 208)"><rect class="basic label-container" style="" rx="0" ry="0" x="-67.5" y="-19.5" width="135" height="39"></rect><g class="label" style="" transform="translate(0, -12)"><rect></rect><text style=""><tspan xml:space="preserve" dy="1em" x="0" class="row">Hash-chained audit</tspan></text></g></g><g class="node default default flowchart-label" id="flowchart-D4-44" data-node="true" data-id="D4" transform="translate(2780, 208)"><rect class="basic label-container" style="" rx="0" ry="0" x="-67.5" y="-19.5" width="135" height="39"></rect><g class="label" style="" transform="translate(0, -12)"><rect></rect><text style=""><tspan xml:space="preserve" dy="1em" x="0" class="row">Observability</tspan></text></g></g><g class="node default default flowchart-label" id="flowchart-E1-46" data-node="true" data-id="E1" transform="translate(2950, 208)"><rect class="basic label-container" style="" rx="0" ry="0" x="-67.5" y="-19.5" width="135" height="39"></rect><g class="label" style="" transform="translate(0, -12)"><rect></rect><text style=""><tspan xml:space="preserve" dy="1em" x="0" class="row">emily CLI</tspan></text></g></g><g class="node default default flowchart-label" id="flowchart-E2-48" data-node="true" data-id="E2" transform="translate(3120, 208)"><rect class="basic label-container" style="" rx="0" ry="0" x="-67.5" y="-19.5" width="135" height="39"></rect><g class="label" style="" transform="translate(0, -12)"><rect></rect><text style=""><tspan xml:space="preserve" dy="1em" x="0" class="row">Workbench UI</tspan></text></g></g><g class="node default default flowchart-label" id="flowchart-E3-50" data-node="true" data-id="E3" transform="translate(3290, 208)"><rect class="basic label-container" style="" rx="0" ry="0" x="-67.5" y="-19.5" width="135" height="39"></rect><g class="label" style="" transform="translate(0, -12)"><rect></rect><text style=""><tspan xml:space="preserve" dy="1em" x="0" class="row">Voice cockpit</tspan></text></g></g></g></g></g></svg>