<svg width="1247" height="310" id="g672006392" xmlns="http://www.w3.org/2000/svg" style="max-width: 1247.125px;" viewBox="-8 -8 1247.125 310" role="graphics-document document" aria-roledescription="flowchart-v2"><rect width="100%" height="100%" fill="#ffffff"/><style>#g672006392{font-family:Segoe UI,Arial,sans-serif;font-size:16px;fill:#333;}#g672006392 .error-icon{fill:#552222;}#g672006392 .error-text{fill:#552222;stroke:#552222;}#g672006392 .edge-thickness-normal{stroke-width:2px;}#g672006392 .edge-thickness-thick{stroke-width:3.5px;}#g672006392 .edge-pattern-solid{stroke-dasharray:0;}#g672006392 .edge-pattern-dashed{stroke-dasharray:3;}#g672006392 .edge-pattern-dotted{stroke-dasharray:2;}#g672006392 .marker{fill:#333333;stroke:#333333;}#g672006392 .marker.cross{stroke:#333333;}#g672006392 svg{font-family:Segoe UI,Arial,sans-serif;font-size:16px;}#g672006392 .label{font-family:Segoe UI,Arial,sans-serif;color:#333;}#g672006392 .cluster-label text{fill:#333;}#g672006392 .cluster-label span,#g672006392 p{color:#333;}#g672006392 .label text,#g672006392 span,#g672006392 p{fill:#333;color:#333;}#g672006392 .node rect,#g672006392 .node circle,#g672006392 .node ellipse,#g672006392 .node polygon,#g672006392 .node path{fill:#ECECFF;stroke:#9370DB;stroke-width:1px;}#g672006392 .flowchart-label text{text-anchor:middle;}#g672006392 .node .katex path{fill:#000;stroke:#000;stroke-width:1px;}#g672006392 .node .label{text-align:center;}#g672006392 .node.clickable{cursor:pointer;}#g672006392 .arrowheadPath{fill:#333333;}#g672006392 .edgePath .path{stroke:#333333;stroke-width:2.0px;}#g672006392 .flowchart-link{stroke:#333333;fill:none;}#g672006392 .edgeLabel{background-color:#e8e8e8;text-align:center;}#g672006392 .edgeLabel rect{opacity:0.5;background-color:#e8e8e8;fill:#e8e8e8;}#g672006392 .labelBkg{background-color:rgba(232, 232, 232, 0.5);}#g672006392 .cluster rect{fill:#ffffde;stroke:#aaaa33;stroke-width:1px;}#g672006392 .cluster text{fill:#333;}#g672006392 .cluster span,#g672006392 p{color:#333;}#g672006392 div.mermaidTooltip{position:absolute;text-align:center;max-width:200px;padding:2px;font-family:Segoe UI,Arial,sans-serif;font-size:12px;background:hsl(80, 100%, 96.2745098039%);border:1px solid #aaaa33;border-radius:2px;pointer-events:none;z-index:100;}#g672006392 .flowchartTitleText{text-anchor:middle;font-size:18px;fill:#333;}#g672006392 :root{--mermaid-font-family:"trebuchet ms",verdana,arial,sans-serif;}</style><g><marker id="g672006392_flowchart-pointEnd" class="marker flowchart" viewBox="0 0 10 10" refX="6" refY="5" markerUnits="userSpaceOnUse" markerWidth="12" markerHeight="12" orient="auto"><path d="M 0 0 L 10 5 L 0 10 z" class="arrowMarkerPath" style="stroke-width: 1; stroke-dasharray: 1, 0;"></path></marker><marker id="g672006392_flowchart-pointStart" class="marker flowchart" viewBox="0 0 10 10" refX="4.5" refY="5" markerUnits="userSpaceOnUse" markerWidth="12" markerHeight="12" orient="auto"><path d="M 0 5 L 10 10 L 10 0 z" class="arrowMarkerPath" style="stroke-width: 1; stroke-dasharray: 1, 0;"></path></marker><marker id="g672006392_flowchart-circleEnd" class="marker flowchart" viewBox="0 0 10 10" refX="11" refY="5" markerUnits="userSpaceOnUse" markerWidth="11" markerHeight="11" orient="auto"><circle cx="5" cy="5" r="5" class="arrowMarkerPath" style="stroke-width: 1; stroke-dasharray: 1, 0;"></circle></marker><marker id="g672006392_flowchart-circleStart" class="marker flowchart" viewBox="0 0 10 10" refX="-1" refY="5" markerUnits="userSpaceOnUse" markerWidth="11" markerHeight="11" orient="auto"><circle cx="5" cy="5" r="5" class="arrowMarkerPath" style="stroke-width: 1; stroke-dasharray: 1, 0;"></circle></marker><marker id="g672006392_flowchart-crossEnd" class="marker cross flowchart" viewBox="0 0 11 11" refX="12" refY="5.2" markerUnits="userSpaceOnUse" markerWidth="11" markerHeight="11" orient="auto"><path d="M 1,1 l 9,9 M 10,1 l -9,9" class="arrowMarkerPath" style="stroke-width: 2; stroke-dasharray: 1, 0;"></path></marker><marker id="g672006392_flowchart-crossStart" class="marker cross flowchart" viewBox="0 0 11 11" refX="-1" refY="5.2" markerUnits="userSpaceOnUse" markerWidth="11" markerHeight="11" orient="auto"><path d="M 1,1 l 9,9 M 10,1 l -9,9" class="arrowMarkerPath" style="stroke-width: 2; stroke-dasharray: 1, 0;"></path></marker><g class="root"><g class="clusters"></g><g class="edgePaths"><path d="M128.141,147L132.307,147C136.474,147,144.807,147,152.257,147C159.707,147,166.274,147,169.557,147L172.841,147" id="L-T-SD-0" class=" edge-thickness-normal edge-pattern-solid flowchart-link LS-T LE-SD" style="fill:none;" marker-end="url(#g672006392_flowchart-pointEnd)"></path><path d="M520.727,147L524.893,147C529.06,147,537.393,147,544.927,147.066C552.46,147.132,559.194,147.264,562.561,147.33L565.928,147.396" id="L-SD-RT-0" class=" edge-thickness-normal edge-pattern-solid flowchart-link LS-SD LE-RT" style="fill:none;" marker-end="url(#g672006392_flowchart-pointEnd)"></path><path d="M759.319,90.312L772.934,78.26C786.549,66.208,813.778,42.104,833.416,30.052C853.054,18,865.099,18,871.122,18L877.145,18" id="L-RT-K-0" class=" edge-thickness-normal edge-pattern-solid flowchart-link LS-RT LE-K" style="fill:none;" marker-end="url(#g672006392_flowchart-pointEnd)"></path><path d="M788.846,119.838L797.539,117.198C806.233,114.559,823.62,109.279,836.861,106.64C850.102,104,859.196,104,863.743,104L868.29,104" id="L-RT-I-0" class=" edge-thickness-normal edge-pattern-solid flowchart-link LS-RT LE-I" style="fill:none;" marker-end="url(#g672006392_flowchart-pointEnd)"></path><path d="M788.846,175.162L797.539,177.635C806.233,180.108,823.62,185.054,837.763,187.527C851.905,190,862.803,190,868.251,190L873.7,190" id="L-RT-C-0" class=" edge-thickness-normal edge-pattern-solid flowchart-link LS-RT LE-C" style="fill:none;" marker-end="url(#g672006392_flowchart-pointEnd)"></path><path d="M759.319,204.688L772.934,216.574C786.549,228.459,813.778,252.229,830.676,264.115C847.574,276,854.141,276,857.424,276L860.708,276" id="L-RT-VB-0" class=" edge-thickness-normal edge-pattern-solid flowchart-link LS-RT LE-VB" style="fill:none;" marker-end="url(#g672006392_flowchart-pointEnd)"></path><path d="M1077.828,18L1084.734,18C1091.641,18,1105.453,18,1121.759,35.72C1138.065,53.439,1156.864,88.879,1166.264,106.598L1175.663,124.318" id="L-K-OUT-0" class=" edge-thickness-normal edge-pattern-solid flowchart-link LS-K LE-OUT" style="fill:none;" marker-end="url(#g672006392_flowchart-pointEnd)"></path><path d="M1086.684,104L1092.114,104C1097.544,104,1108.405,104,1119.718,107.697C1131.031,111.393,1142.797,118.787,1148.68,122.483L1154.563,126.18" id="L-I-OUT-0" class=" edge-thickness-normal edge-pattern-solid flowchart-link LS-I LE-OUT" style="fill:none;" marker-end="url(#g672006392_flowchart-pointEnd)"></path><path d="M1081.273,190L1087.605,190C1093.938,190,1106.602,190,1118.816,186.303C1131.031,182.607,1142.797,175.213,1148.68,171.517L1154.563,167.82" id="L-C-OUT-0" class=" edge-thickness-normal edge-pattern-solid flowchart-link LS-C LE-OUT" style="fill:none;" marker-end="url(#g672006392_flowchart-pointEnd)"></path><path d="M1094.266,276L1098.432,276C1102.599,276,1110.932,276,1124.499,258.28C1138.065,240.561,1156.864,205.121,1166.264,187.402L1175.663,169.682" id="L-VB-OUT-0" class=" edge-thickness-normal edge-pattern-solid flowchart-link LS-VB LE-OUT" style="fill:none;" marker-end="url(#g672006392_flowchart-pointEnd)"></path></g><g class="edgeLabels"><g class="edgeLabel"><g class="label" transform="translate(0, 0)"><rect rx="0" ry="0" width="0" height="0"></rect><text style=""><tspan xml:space="preserve" dy="1em" x="0" class="row"></tspan></text></g></g><g class="edgeLabel"><g class="label" transform="translate(0, 0)"><rect rx="0" ry="0" width="0" height="0"></rect><text style=""><tspan xml:space="preserve" dy="1em" x="0" class="row"></tspan></text></g></g><g class="edgeLabel"><g class="label" transform="translate(0, 0)"><rect rx="0" ry="0" width="0" height="0"></rect><text style=""><tspan xml:space="preserve" dy="1em" x="0" class="row"></tspan></text></g></g><g class="edgeLabel"><g class="label" transform="translate(0, 0)"><rect rx="0" ry="0" width="0" height="0"></rect><text style=""><tspan xml:space="preserve" dy="1em" x="0" class="row"></tspan></text></g></g><g class="edgeLabel"><g class="label" transform="translate(0, 0)"><rect rx="0" ry="0" width="0" height="0"></rect><text style=""><tspan xml:space="preserve" dy="1em" x="0" class="row"></tspan></text></g></g><g class="edgeLabel"><g class="label" transform="translate(0, 0)"><rect rx="0" ry="0" width="0" height="0"></rect><text style=""><tspan xml:space="preserve" dy="1em" x="0" class="row"></tspan></text></g></g><g class="edgeLabel"><g class="label" transform="translate(0, 0)"><rect rx="0" ry="0" width="0" height="0"></rect><text style=""><tspan xml:space="preserve" dy="1em" x="0" class="row"></tspan></text></g></g><g class="edgeLabel"><g class="label" transform="translate(0, 0)"><rect rx="0" ry="0" width="0" height="0"></rect><text style=""><tspan xml:space="preserve" dy="1em" x="0" class="row"></tspan></text></g></g><g class="edgeLabel"><g class="label" transform="translate(0, 0)"><rect rx="0" ry="0" width="0" height="0"></rect><text style=""><tspan xml:space="preserve" dy="1em" x="0" class="row"></tspan></text></g></g><g class="edgeLabel"><g class="label" transform="translate(0, 0)"><rect rx="0" ry="0" width="0" height="0"></rect><text style=""><tspan xml:space="preserve" dy="1em" x="0" class="row"></tspan></text></g></g></g><g class="nodes"><g class="node default default flowchart-label" id="flowchart-T-189" data-node="true" data-id="T" transform="translate(64.0703125, 147)"><rect class="basic label-container" style="" rx="0" ry="0" x="-64.0703125" y="-18" width="128.140625" height="36"></rect><g class="label" style="" transform="translate(0, -10.5)"><rect></rect><text style=""><tspan xml:space="preserve" dy="1em" x="0" class="row">Text + language</tspan></text></g></g><g class="node default default flowchart-label" id="flowchart-SD-190" data-node="true" data-id="SD" transform="translate(349.43359375, 147)"><rect class="basic label-container" style="" rx="0" ry="0" x="-171.29296875" y="-18" width="342.5859375" height="36"></rect><g class="label" style="" transform="translate(0, -10.5)"><rect></rect><text style=""><tspan xml:space="preserve" dy="1em" x="0" class="row">Speech Director - emotion + pace + segments</tspan></text></g></g><g class="node default default flowchart-label" id="flowchart-RT-192" data-node="true" data-id="RT" transform="translate(693.3671875, 147)"><polygon points="122.640625,0 245.28125,-122.640625 122.640625,-245.28125 0,-122.640625" class="label-container" transform="translate(-122.640625,122.640625)" style=""></polygon><g class="label" style="" transform="translate(0, -10.5)"><rect></rect><text style=""><tspan xml:space="preserve" dy="1em" x="0" class="row">TTS router - scored fallback</tspan></text></g></g><g class="node default default flowchart-label" id="flowchart-K-194" data-node="true" data-id="K" transform="translate(980.13671875, 18)"><rect class="basic label-container" style="" rx="0" ry="0" x="-97.69140625" y="-18" width="195.3828125" height="36"></rect><g class="label" style="" transform="translate(0, -10.5)"><rect></rect><text style=""><tspan xml:space="preserve" dy="1em" x="0" class="row">Kokoro - 9 ISO languages</tspan></text></g></g><g class="node default default flowchart-label" id="flowchart-I-196" data-node="true" data-id="I" transform="translate(980.13671875, 104)"><rect class="basic label-container" style="" rx="0" ry="0" x="-106.546875" y="-18" width="213.09375" height="36"></rect><g class="label" style="" transform="translate(0, -10.5)"><rect></rect><text style=""><tspan xml:space="preserve" dy="1em" x="0" class="row">IndicF5 - 11 Indic languages</tspan></text></g></g><g class="node default default flowchart-label" id="flowchart-C-198" data-node="true" data-id="C" transform="translate(980.13671875, 190)"><rect class="basic label-container" style="" rx="0" ry="0" x="-101.13671875" y="-18" width="202.2734375" height="36"></rect><g class="label" style="" transform="translate(0, -10.5)"><rect></rect><text style=""><tspan xml:space="preserve" dy="1em" x="0" class="row">Chatterbox - 23 languages</tspan></text></g></g><g class="node default default flowchart-label" id="flowchart-VB-200" data-node="true" data-id="VB" transform="translate(980.13671875, 276)"><rect class="basic label-container" style="" rx="0" ry="0" x="-114.12890625" y="-18" width="228.2578125" height="36"></rect><g class="label" style="" transform="translate(0, -10.5)"><rect></rect><text style=""><tspan xml:space="preserve" dy="1em" x="0" class="row">Voicebox REST - 23 languages</tspan></text></g></g><g class="node default default flowchart-label" id="flowchart-OUT-202" data-node="true" data-id="OUT" transform="translate(1187.6953125, 147)"><rect class="basic label-container" style="" rx="0" ry="0" x="-43.4296875" y="-18" width="86.859375" height="36"></rect><g class="label" style="" transform="translate(0, -10.5)"><rect></rect><text style=""><tspan xml:space="preserve" dy="1em" x="0" class="row">Audio out</tspan></text></g></g></g></g></g></svg>